<svg width="402" height="25" viewBox="0 0 402 25" fill="none" xmlns="http://www.w3.org/2000/svg">
<path d="M353.632 15C353.525 15 353.435 14.9627 353.36 14.888C353.285 14.8133 353.248 14.7227 353.248 14.616V4.2C353.248 4.08267 353.28 3.98667 353.344 3.912C353.419 3.83733 353.515 3.8 353.632 3.8H355.104C355.221 3.8 355.317 3.83733 355.392 3.912C355.467 3.98667 355.504 4.08267 355.504 4.2V8.312H360.176V4.2C360.176 4.08267 360.213 3.98667 360.288 3.912C360.363 3.83733 360.453 3.8 360.56 3.8H362.048C362.165 3.8 362.256 3.83733 362.32 3.912C362.395 3.98667 362.432 4.08267 362.432 4.2V14.616C362.432 14.7227 362.395 14.8133 362.32 14.888C362.256 14.9627 362.165 15 362.048 15H360.56C360.453 15 360.363 14.9627 360.288 14.888C360.213 14.8133 360.176 14.7227 360.176 14.616V10.344H355.504V14.616C355.504 14.7227 355.467 14.8133 355.392 14.888C355.317 14.9627 355.221 15 355.104 15H353.632ZM367.16 15.16C366.616 15.16 366.114 15.0533 365.656 14.84C365.208 14.616 364.85 14.3173 364.584 13.944C364.328 13.5707 364.2 13.16 364.2 12.712C364.2 11.9867 364.493 11.4 365.08 10.952C365.666 10.504 366.472 10.2 367.496 10.04L369.688 9.72V9.384C369.688 8.92533 369.57 8.57867 369.336 8.344C369.101 8.10933 368.728 7.992 368.216 7.992C367.864 7.992 367.581 8.056 367.368 8.184C367.154 8.312 366.978 8.44533 366.84 8.584C366.712 8.712 366.626 8.79733 366.584 8.84C366.541 8.968 366.461 9.032 366.344 9.032H365.096C365 9.032 364.914 9 364.84 8.936C364.776 8.872 364.743 8.78667 364.743 8.68C364.754 8.41333 364.882 8.11467 365.128 7.784C365.384 7.44267 365.773 7.14933 366.296 6.904C366.818 6.648 367.464 6.52 368.232 6.52C369.49 6.52 370.408 6.80267 370.984 7.368C371.56 7.93333 371.848 8.67467 371.848 9.592V14.616C371.848 14.7227 371.81 14.8133 371.736 14.888C371.672 14.9627 371.581 15 371.464 15H370.136C370.029 15 369.938 14.9627 369.864 14.888C369.789 14.8133 369.752 14.7227 369.752 14.616V13.992C369.517 14.3333 369.186 14.616 368.76 14.84C368.333 15.0533 367.8 15.16 367.16 15.16ZM367.704 13.624C368.29 13.624 368.77 13.432 369.144 13.048C369.517 12.664 369.704 12.1093 369.704 11.384V11.064L368.104 11.32C366.877 11.512 366.264 11.9227 366.264 12.552C366.264 12.8933 366.402 13.16 366.68 13.352C366.968 13.5333 367.309 13.624 367.704 13.624ZM381.5 6.68C381.596 6.68 381.681 6.71733 381.756 6.792C381.83 6.856 381.868 6.936 381.868 7.032V14.616C381.868 14.7227 381.83 14.8133 381.756 14.888C381.692 14.9627 381.601 15 381.484 15H380.124C380.017 15 379.926 14.9627 379.852 14.888C379.777 14.8133 379.74 14.7227 379.74 14.616V9.512L375.948 14.744C375.83 14.9147 375.681 15 375.5 15H374.268C374.161 15 374.07 14.968 373.996 14.904C373.932 14.8293 373.9 14.7387 373.9 14.632V7.064C373.9 6.94667 373.937 6.856 374.012 6.792C374.086 6.71733 374.177 6.68 374.284 6.68H375.644C375.75 6.68 375.841 6.71733 375.916 6.792C375.99 6.86667 376.028 6.95733 376.028 7.064V12.168L379.82 6.936C379.948 6.76533 380.097 6.68 380.268 6.68H381.5ZM377.98 5.592C377.073 5.592 376.412 5.39467 375.996 5C375.58 4.59467 375.372 4.072 375.372 3.432C375.372 3.34667 375.398 3.27733 375.452 3.224C375.505 3.16 375.58 3.128 375.676 3.128H376.604C376.7 3.128 376.774 3.16 376.828 3.224C376.881 3.27733 376.908 3.34667 376.908 3.432C376.908 4.05067 377.265 4.36 377.98 4.36C378.705 4.36 379.068 4.05067 379.068 3.432C379.068 3.34667 379.094 3.27733 379.148 3.224C379.201 3.16 379.276 3.128 379.372 3.128H380.3C380.396 3.128 380.47 3.16 380.524 3.224C380.577 3.27733 380.604 3.34667 380.604 3.432C380.604 4.072 380.396 4.59467 379.98 5C379.564 5.39467 378.897 5.592 377.98 5.592ZM386.412 15C386.305 15 386.215 14.9627 386.14 14.888C386.065 14.8133 386.028 14.7227 386.028 14.616V8.392H383.436C383.329 8.392 383.239 8.35467 383.164 8.28C383.089 8.20533 383.052 8.11467 383.052 8.008V7.064C383.052 6.94667 383.089 6.856 383.164 6.792C383.239 6.71733 383.329 6.68 383.436 6.68H390.716C390.833 6.68 390.924 6.71733 390.988 6.792C391.063 6.856 391.1 6.94667 391.1 7.064V8.008C391.1 8.11467 391.063 8.20533 390.988 8.28C390.924 8.35467 390.833 8.392 390.716 8.392H388.124V14.616C388.124 14.7227 388.087 14.8133 388.012 14.888C387.948 14.9627 387.857 15 387.74 15H386.412ZM399.984 6.68C400.08 6.68 400.165 6.71733 400.24 6.792C400.315 6.856 400.352 6.936 400.352 7.032V14.616C400.352 14.7227 400.315 14.8133 400.24 14.888C400.176 14.9627 400.085 15 399.968 15H398.608C398.501 15 398.411 14.9627 398.336 14.888C398.261 14.8133 398.224 14.7227 398.224 14.616V9.512L394.432 14.744C394.315 14.9147 394.165 15 393.984 15H392.752C392.645 15 392.555 14.968 392.48 14.904C392.416 14.8293 392.384 14.7387 392.384 14.632V7.064C392.384 6.94667 392.421 6.856 392.496 6.792C392.571 6.71733 392.661 6.68 392.768 6.68H394.128C394.235 6.68 394.325 6.71733 394.4 6.792C394.475 6.86667 394.512 6.95733 394.512 7.064V12.168L398.304 6.936C398.432 6.76533 398.581 6.68 398.752 6.68H399.984Z" fill="#E5261E"/>
<line y1="24.5" x2="320" y2="24.5" stroke="#333333"/>
<path d="M1.76 15C1.65333 15 1.568 14.968 1.504 14.904C1.44 14.8293 1.408 14.7387 1.408 14.632V4.184C1.408 4.06667 1.44 3.976 1.504 3.912C1.568 3.83733 1.65333 3.8 1.76 3.8H9.616C9.73333 3.8 9.824 3.83733 9.888 3.912C9.96267 3.976 10 4.06667 10 4.184V14.632C10 14.7387 9.96267 14.8293 9.888 14.904C9.81333 14.968 9.72267 15 9.616 15H8.848C8.74133 15 8.65067 14.968 8.576 14.904C8.512 14.8293 8.48 14.7387 8.48 14.632V5.192H2.912V14.632C2.912 14.7387 2.87467 14.8293 2.8 14.904C2.72533 14.968 2.63467 15 2.528 15H1.76ZM15.9666 15.16C14.7933 15.16 13.8866 14.8293 13.2466 14.168C12.6173 13.5067 12.2813 12.6267 12.2386 11.528L12.2226 10.84L12.2386 10.152C12.2813 9.05333 12.6226 8.17333 13.2626 7.512C13.9133 6.85067 14.8146 6.52 15.9666 6.52C17.1186 6.52 18.0146 6.85067 18.6546 7.512C19.3053 8.17333 19.652 9.05333 19.6946 10.152C19.716 10.3867 19.7266 10.616 19.7266 10.84C19.7266 11.064 19.716 11.2933 19.6946 11.528C19.652 12.6267 19.3106 13.5067 18.6706 14.168C18.0413 14.8293 17.14 15.16 15.9666 15.16ZM15.9666 13.96C16.6493 13.96 17.188 13.7467 17.5826 13.32C17.988 12.8827 18.2066 12.2587 18.2386 11.448C18.2493 11.3413 18.2546 11.1387 18.2546 10.84C18.2546 10.5413 18.2493 10.3387 18.2386 10.232C18.2066 9.42133 17.988 8.80267 17.5826 8.376C17.188 7.93867 16.6493 7.72 15.9666 7.72C15.284 7.72 14.74 7.93867 14.3346 8.376C13.94 8.80267 13.7266 9.42133 13.6946 10.232L13.6786 10.84L13.6946 11.448C13.7266 12.2587 13.94 12.8827 14.3346 13.32C14.74 13.7467 15.284 13.96 15.9666 13.96ZM28.7549 6.68C28.8402 6.68 28.9202 6.712 28.9949 6.776C29.0695 6.84 29.1069 6.91467 29.1069 7V14.632C29.1069 14.7387 29.0695 14.8293 28.9949 14.904C28.9309 14.968 28.8455 15 28.7389 15H28.0349C27.9282 15 27.8375 14.968 27.7629 14.904C27.6989 14.8293 27.6669 14.7387 27.6669 14.632V8.776L23.1869 14.76C23.0695 14.92 22.9309 15 22.7709 15H22.0829C21.9975 15 21.9175 14.968 21.8429 14.904C21.7789 14.8293 21.7469 14.7493 21.7469 14.664V7.048C21.7469 6.94133 21.7789 6.856 21.8429 6.792C21.9175 6.71733 22.0082 6.68 22.1149 6.68H22.8189C22.9255 6.68 23.0109 6.71733 23.0749 6.792C23.1495 6.856 23.1869 6.94133 23.1869 7.048V12.904L27.6669 6.92C27.7842 6.76 27.9229 6.68 28.0829 6.68H28.7549ZM34.7936 15.16C33.6523 15.16 32.7616 14.84 32.1216 14.2C31.4816 13.5493 31.1456 12.6427 31.1136 11.48L31.0976 10.84L31.1136 10.2C31.1456 9.03733 31.4816 8.136 32.1216 7.496C32.7616 6.84533 33.6523 6.52 34.7936 6.52C35.5616 6.52 36.207 6.65867 36.7296 6.936C37.263 7.20267 37.6576 7.53867 37.9136 7.944C38.1803 8.34933 38.3243 8.75467 38.3456 9.16C38.3563 9.256 38.319 9.34133 38.2336 9.416C38.159 9.49067 38.0736 9.528 37.9776 9.528H37.2736C37.167 9.528 37.087 9.50667 37.0336 9.464C36.9803 9.41067 36.927 9.32 36.8736 9.192C36.6816 8.66933 36.415 8.30133 36.0736 8.088C35.743 7.864 35.3216 7.752 34.8096 7.752C34.1376 7.752 33.6043 7.96 33.2096 8.376C32.815 8.792 32.6016 9.42667 32.5696 10.28L32.5536 10.84L32.5696 11.4C32.6016 12.2533 32.815 12.888 33.2096 13.304C33.6043 13.72 34.1376 13.928 34.8096 13.928C35.3323 13.928 35.759 13.8213 36.0896 13.608C36.4203 13.384 36.6816 13.0107 36.8736 12.488C36.927 12.36 36.9803 12.2747 37.0336 12.232C37.087 12.1787 37.167 12.152 37.2736 12.152H37.9776C38.0736 12.152 38.159 12.1893 38.2336 12.264C38.319 12.3387 38.3563 12.424 38.3456 12.52C38.3243 12.9147 38.1803 13.3147 37.9136 13.72C37.6576 14.1253 37.263 14.4667 36.7296 14.744C36.207 15.0213 35.5616 15.16 34.7936 15.16ZM47.1425 14.536C47.1852 14.6107 47.2065 14.68 47.2065 14.744C47.2065 14.9147 47.1052 15 46.9025 15H45.9905C45.8305 15 45.6865 14.92 45.5585 14.76L43.2065 11.4H41.6865V14.632C41.6865 14.7387 41.6492 14.8293 41.5745 14.904C41.5105 14.968 41.4252 15 41.3185 15H40.6305C40.5238 15 40.4332 14.968 40.3585 14.904C40.2945 14.8293 40.2625 14.7387 40.2625 14.632V7.048C40.2625 6.94133 40.2945 6.856 40.3585 6.792C40.4332 6.71733 40.5238 6.68 40.6305 6.68H41.3185C41.4358 6.68 41.5265 6.712 41.5905 6.776C41.6545 6.84 41.6865 6.93067 41.6865 7.048V10.136H43.1745L45.3665 6.92C45.4732 6.76 45.6118 6.68 45.7825 6.68H46.5665C46.6625 6.68 46.7425 6.70667 46.8065 6.76C46.8705 6.80267 46.9025 6.86133 46.9025 6.936C46.9025 6.95733 46.8918 6.98933 46.8705 7.032C46.8492 7.064 46.8332 7.096 46.8225 7.128L44.4225 10.664L47.1425 14.536ZM49.0498 15C48.9431 15 48.8524 14.968 48.7778 14.904C48.7138 14.8293 48.6818 14.7387 48.6818 14.632V13.528C48.6818 13.4213 48.7138 13.3307 48.7778 13.256C48.8524 13.1813 48.9431 13.144 49.0498 13.144H50.1538C50.2604 13.144 50.3458 13.1813 50.4098 13.256C50.4844 13.3307 50.5218 13.4213 50.5218 13.528V14.632C50.5218 14.7387 50.4844 14.8293 50.4098 14.904C50.3458 14.968 50.2604 15 50.1538 15H49.0498ZM53.0498 15C52.9431 15 52.8524 14.968 52.7778 14.904C52.7138 14.8293 52.6818 14.7387 52.6818 14.632V13.528C52.6818 13.4213 52.7138 13.3307 52.7778 13.256C52.8524 13.1813 52.9431 13.144 53.0498 13.144H54.1538C54.2604 13.144 54.3458 13.1813 54.4098 13.256C54.4844 13.3307 54.5218 13.4213 54.5218 13.528V14.632C54.5218 14.7387 54.4844 14.8293 54.4098 14.904C54.3458 14.968 54.2604 15 54.1538 15H53.0498ZM57.0498 15C56.9431 15 56.8524 14.968 56.7778 14.904C56.7138 14.8293 56.6818 14.7387 56.6818 14.632V13.528C56.6818 13.4213 56.7138 13.3307 56.7778 13.256C56.8524 13.1813 56.9431 13.144 57.0498 13.144H58.1538C58.2604 13.144 58.3458 13.1813 58.4098 13.256C58.4844 13.3307 58.5218 13.4213 58.5218 13.528V14.632C58.5218 14.7387 58.4844 14.8293 58.4098 14.904C58.3458 14.968 58.2604 15 58.1538 15H57.0498Z" fill="#828282"/>
</svg>
