<svg width="113" height="38" viewBox="0 0 113 38" fill="none" xmlns="http://www.w3.org/2000/svg">
<rect width="113" height="38" rx="4" fill="#E5261E"/>
<path d="M33.6633 24C33.5566 24 33.4659 23.9627 33.3913 23.888C33.3166 23.8133 33.2793 23.7227 33.2793 23.616V13.2C33.2793 13.0827 33.3113 12.9867 33.3753 12.912C33.4499 12.8373 33.5459 12.8 33.6633 12.8H38.3033C39.5513 12.8 40.4846 13.0773 41.1033 13.632C41.7219 14.176 42.0312 14.9227 42.0312 15.872C42.0312 16.4267 41.8926 16.9013 41.6153 17.296C41.3486 17.68 41.0339 17.9573 40.6713 18.128C41.1193 18.3307 41.4979 18.6613 41.8073 19.12C42.1166 19.5787 42.2713 20.1013 42.2713 20.688C42.2713 21.68 41.9353 22.48 41.2633 23.088C40.5913 23.696 39.6526 24 38.4473 24H33.6633ZM38.0153 17.392C38.5593 17.392 38.9753 17.2587 39.2633 16.992C39.5619 16.7253 39.7113 16.368 39.7113 15.92C39.7113 15.472 39.5673 15.1253 39.2793 14.88C38.9913 14.6347 38.5699 14.512 38.0153 14.512H35.5353V17.392H38.0153ZM38.1753 22.288C38.7299 22.288 39.1619 22.1387 39.4713 21.84C39.7806 21.5307 39.9353 21.1413 39.9353 20.672C39.9353 20.2027 39.7753 19.8187 39.4553 19.52C39.1459 19.2107 38.7193 19.056 38.1753 19.056H35.5353V22.288H38.1753ZM47.7676 24.16C46.509 24.16 45.5383 23.84 44.8556 23.2C44.173 22.56 43.805 21.6747 43.7516 20.544L43.7356 19.84L43.7516 19.136C43.805 18.016 44.1783 17.136 44.8716 16.496C45.565 15.8453 46.5303 15.52 47.7676 15.52C48.9943 15.52 49.9543 15.8453 50.6476 16.496C51.341 17.136 51.7143 18.016 51.7676 19.136C51.7783 19.264 51.7836 19.4987 51.7836 19.84C51.7836 20.1813 51.7783 20.416 51.7676 20.544C51.7143 21.6747 51.3463 22.56 50.6636 23.2C49.981 23.84 49.0156 24.16 47.7676 24.16ZM47.7676 22.544C48.333 22.544 48.765 22.368 49.0636 22.016C49.373 21.664 49.5383 21.1467 49.5596 20.464C49.5703 20.3573 49.5756 20.1493 49.5756 19.84C49.5756 19.5307 49.5703 19.3227 49.5596 19.216C49.5383 18.5333 49.373 18.016 49.0636 17.664C48.7543 17.3013 48.3223 17.12 47.7676 17.12C47.2023 17.12 46.765 17.3013 46.4556 17.664C46.1463 18.016 45.981 18.5333 45.9596 19.216L45.9436 19.84L45.9596 20.464C45.981 21.1467 46.1463 21.664 46.4556 22.016C46.765 22.368 47.2023 22.544 47.7676 22.544ZM61.156 15.68C61.252 15.68 61.3373 15.7173 61.412 15.792C61.4867 15.856 61.524 15.936 61.524 16.032V23.616C61.524 23.7227 61.4867 23.8133 61.412 23.888C61.348 23.9627 61.2573 24 61.14 24H59.78C59.6733 24 59.5827 23.9627 59.508 23.888C59.4333 23.8133 59.396 23.7227 59.396 23.616V18.512L55.604 23.744C55.4867 23.9147 55.3373 24 55.156 24H53.924C53.8173 24 53.7267 23.968 53.652 23.904C53.588 23.8293 53.556 23.7387 53.556 23.632V16.064C53.556 15.9467 53.5933 15.856 53.668 15.792C53.7427 15.7173 53.8333 15.68 53.94 15.68H55.3C55.4067 15.68 55.4973 15.7173 55.572 15.792C55.6467 15.8667 55.684 15.9573 55.684 16.064V21.168L59.476 15.936C59.604 15.7653 59.7533 15.68 59.924 15.68H61.156ZM57.636 14.592C56.7293 14.592 56.068 14.3947 55.652 14C55.236 13.5947 55.028 13.072 55.028 12.432C55.028 12.3467 55.0547 12.2773 55.108 12.224C55.1613 12.16 55.236 12.128 55.332 12.128H56.26C56.356 12.128 56.4307 12.16 56.484 12.224C56.5373 12.2773 56.564 12.3467 56.564 12.432C56.564 13.0507 56.9213 13.36 57.636 13.36C58.3613 13.36 58.724 13.0507 58.724 12.432C58.724 12.3467 58.7507 12.2773 58.804 12.224C58.8573 12.16 58.932 12.128 59.028 12.128H59.956C60.052 12.128 60.1267 12.16 60.18 12.224C60.2333 12.2773 60.26 12.3467 60.26 12.432C60.26 13.072 60.052 13.5947 59.636 14C59.22 14.3947 58.5533 14.592 57.636 14.592ZM66.0684 24C65.9617 24 65.871 23.9627 65.7964 23.888C65.7217 23.8133 65.6844 23.7227 65.6844 23.616V17.392H63.0924C62.9857 17.392 62.895 17.3547 62.8204 17.28C62.7457 17.2053 62.7084 17.1147 62.7084 17.008V16.064C62.7084 15.9467 62.7457 15.856 62.8204 15.792C62.895 15.7173 62.9857 15.68 63.0924 15.68H70.3724C70.4897 15.68 70.5804 15.7173 70.6444 15.792C70.719 15.856 70.7564 15.9467 70.7564 16.064V17.008C70.7564 17.1147 70.719 17.2053 70.6444 17.28C70.5804 17.3547 70.4897 17.392 70.3724 17.392H67.7804V23.616C67.7804 23.7227 67.743 23.8133 67.6684 23.888C67.6044 23.9627 67.5137 24 67.3964 24H66.0684ZM79.6404 15.68C79.7364 15.68 79.8217 15.7173 79.8964 15.792C79.971 15.856 80.0084 15.936 80.0084 16.032V23.616C80.0084 23.7227 79.971 23.8133 79.8964 23.888C79.8324 23.9627 79.7417 24 79.6244 24H78.2644C78.1577 24 78.067 23.9627 77.9924 23.888C77.9177 23.8133 77.8804 23.7227 77.8804 23.616V18.512L74.0884 23.744C73.971 23.9147 73.8217 24 73.6404 24H72.4084C72.3017 24 72.211 23.968 72.1364 23.904C72.0724 23.8293 72.0404 23.7387 72.0404 23.632V16.064C72.0404 15.9467 72.0777 15.856 72.1524 15.792C72.227 15.7173 72.3177 15.68 72.4244 15.68H73.7844C73.891 15.68 73.9817 15.7173 74.0564 15.792C74.131 15.8667 74.1684 15.9573 74.1684 16.064V21.168L77.9604 15.936C78.0884 15.7653 78.2377 15.68 78.4084 15.68H79.6404Z" fill="white"/>
</svg>
